<svg width="1101" height="303" viewBox="0 0 1101 303" fill="none" xmlns="http://www.w3.org/2000/svg">
<path d="M11.5 256H55.5L44 302.5H0L11.5 256Z" fill="#5313E5"/>
<path d="M73 192.5L135.5 193.5L120.5 257H56L73 192.5Z" fill="#5313E5"/>
<path d="M146.829 150H192L180.5 194H135L146.829 150Z" fill="#5313E5"/>
<path d="M181.801 67H213.5L205.43 97.8772H173.5L181.801 67Z" fill="#5313E5"/>
<path d="M197 128H219.5L213.5 150H192L197 128Z" fill="#5313E5"/>
<path d="M124.5 120H155L146.7 150.1H115.5L124.5 120Z" fill="#5313E5"/>
<path d="M108.5 98H130.5L124.5 120H102.5L108.5 98Z" fill="#5313E5"/>
<path d="M50 163H81.5L73 194.5H41.5L50 163Z" fill="#5313E5"/>
<path d="M219 45H242.5L237 67H213.5L219 45Z" fill="#5313E5"/>
<path d="M489.956 130.181C489.956 141.312 487.821 151.756 483.552 161.514C479.283 171.272 473.489 179.811 466.17 187.129C458.852 194.448 450.237 200.242 440.326 204.511C430.568 208.78 420.124 210.915 408.994 210.915C398.016 210.915 387.571 208.78 377.661 204.511C367.903 200.242 359.364 194.448 352.046 187.129C344.727 179.811 338.933 171.272 334.664 161.514C330.395 151.756 328.26 141.312 328.26 130.181C328.26 119.051 330.395 108.607 334.664 98.8487C338.933 88.9381 344.727 80.3234 352.046 73.0048C359.364 65.6862 367.903 59.8923 377.661 55.6232C387.571 51.354 398.016 49.2194 408.994 49.2194C420.124 49.2194 430.568 51.354 440.326 55.6232C450.237 59.8923 458.852 65.6862 466.17 73.0048C473.489 80.3234 479.283 88.9381 483.552 98.8487C487.821 108.607 489.956 119.051 489.956 130.181ZM408.994 70.9465C400.913 70.9465 393.289 72.4712 386.123 75.5206C379.109 78.57 372.858 82.763 367.369 88.0995C362.033 93.4359 357.763 99.7635 354.561 107.082C351.512 114.248 349.987 121.948 349.987 130.181C349.987 138.415 351.512 146.115 354.561 153.281C357.763 160.447 362.033 166.698 367.369 172.035C372.858 177.371 379.109 181.564 386.123 184.614C393.289 187.663 400.913 189.188 408.994 189.188C417.227 189.188 424.927 187.663 432.093 184.614C439.412 181.564 445.739 177.371 451.076 172.035C456.412 166.698 460.605 160.447 463.654 153.281C466.704 146.115 468.229 138.415 468.229 130.181C468.229 121.948 466.704 114.248 463.654 107.082C460.605 99.7635 456.412 93.4359 451.076 88.0995C445.739 82.763 439.412 78.57 432.093 75.5206C424.927 72.4712 417.227 70.9465 408.994 70.9465ZM509.608 93.5884H530.421V108.226C535.3 103.347 540.941 99.5348 547.345 96.7903C553.901 94.0458 561.067 92.6736 568.843 92.6736C577.077 92.6736 584.777 94.1983 591.943 97.2477C599.261 100.297 605.665 104.49 611.154 109.827C616.643 115.163 620.912 121.491 623.962 128.809C627.163 135.975 628.764 143.675 628.764 151.909C628.764 160.142 627.163 167.842 623.962 175.008C620.912 182.174 616.643 188.425 611.154 193.762C605.665 199.098 599.261 203.291 591.943 206.341C584.777 209.39 577.077 210.915 568.843 210.915C561.067 210.915 553.901 209.543 547.345 206.798C540.941 204.054 535.3 200.242 530.421 195.363V261.002H509.608V93.5884ZM568.843 190.103C574.332 190.103 579.44 189.188 584.167 187.358C588.893 185.376 593.01 182.708 596.517 179.353C600.024 175.847 602.768 171.806 604.75 167.232C606.885 162.505 607.952 157.398 607.952 151.909C607.952 146.725 606.885 141.845 604.75 137.271C602.768 132.545 600.024 128.504 596.517 125.15C593.01 121.643 588.893 118.899 584.167 116.916C579.44 114.782 574.332 113.715 568.843 113.715C563.507 113.715 558.475 114.782 553.749 116.916C549.175 118.899 545.134 121.643 541.627 125.15C538.273 128.504 535.528 132.545 533.394 137.271C531.412 141.845 530.421 146.725 530.421 151.909C530.421 157.398 531.412 162.505 533.394 167.232C535.528 171.806 538.273 175.847 541.627 179.353C545.134 182.708 549.175 185.376 553.749 187.358C558.475 189.188 563.507 190.103 568.843 190.103ZM695.634 113.715H674.593V210H653.781V113.715H638.229V93.5884H653.781V50.1342H674.593V93.5884H695.634V113.715ZM736.14 50.1342V81.2383H715.328V50.1342H736.14ZM715.328 93.5884H736.14V210H715.328V93.5884ZM908.476 210H887.664V134.298C887.664 131.401 887.13 128.657 886.063 126.065C884.995 123.473 883.471 121.186 881.489 119.204C879.659 117.221 877.448 115.697 874.856 114.629C872.264 113.41 869.443 112.8 866.394 112.8C859.533 112.8 854.273 114.934 850.613 119.204C847.106 123.473 845.353 128.504 845.353 134.298V210H824.541V134.298C824.541 131.401 824.007 128.657 822.94 126.065C821.872 123.473 820.348 121.186 818.366 119.204C816.536 117.221 814.325 115.697 811.733 114.629C809.141 113.41 806.32 112.8 803.271 112.8C796.41 112.8 791.15 114.934 787.49 119.204C783.983 123.473 782.23 128.504 782.23 134.298V210H761.418V93.5884H782.23V102.051C784.822 99.4585 788.253 97.2477 792.522 95.4181C796.943 93.5884 801.746 92.6736 806.93 92.6736C812.877 92.6736 818.289 93.9696 823.168 96.5616C828.2 99.0011 832.469 102.355 835.976 106.625C841.008 101.136 846.268 97.4764 851.757 95.6468C857.246 93.6647 862.353 92.6736 867.08 92.6736C872.569 92.6736 877.753 93.6647 882.632 95.6468C887.664 97.6289 892.085 100.45 895.897 104.109C899.709 107.616 902.758 111.885 905.045 116.916C907.332 121.948 908.476 127.513 908.476 133.612V210ZM1016.54 169.062C1016.54 174.703 1015.4 180.116 1013.11 185.3C1010.98 190.331 1008 194.753 1004.19 198.565C1000.38 202.376 995.96 205.426 990.928 207.713C985.897 209.848 980.56 210.915 974.919 210.915C968.972 210.915 963.407 209.848 958.223 207.713C953.192 205.426 948.77 202.376 944.958 198.565C941.146 194.753 938.097 190.331 935.81 185.3C933.675 180.116 932.608 174.703 932.608 169.062V93.5884H953.42V169.062C953.42 174.855 955.479 179.811 959.595 183.927C963.712 187.892 968.82 189.874 974.919 189.874C977.663 189.874 980.255 189.34 982.695 188.273C985.287 187.206 987.498 185.757 989.327 183.927C991.309 181.945 992.834 179.735 993.901 177.295C995.121 174.703 995.731 171.958 995.731 169.062V93.5884H1016.54V169.062ZM1076.95 142.074C1083.51 145.124 1088.46 149.393 1091.82 154.882C1095.32 160.371 1097.08 166.851 1097.08 174.322C1097.08 179.506 1096.09 184.385 1094.1 188.959C1092.27 193.381 1089.61 197.269 1086.1 200.623C1082.74 203.825 1078.78 206.341 1074.21 208.17C1069.63 210 1064.75 210.915 1059.57 210.915C1054.38 210.915 1049.58 209.924 1045.16 207.942C1040.89 205.807 1037 202.986 1033.5 199.48L1046.53 183.013C1047.9 185.147 1049.73 186.824 1052.02 188.044C1054.46 189.264 1056.98 189.874 1059.57 189.874C1064.45 189.874 1068.41 188.502 1071.46 185.757C1074.66 183.013 1076.26 179.201 1076.26 174.322C1076.26 167.308 1072.76 162.048 1065.74 158.541L1058.88 155.11C1052.94 152.061 1048.36 148.097 1045.16 143.218C1042.11 138.186 1040.59 132.621 1040.59 126.522C1040.59 121.948 1041.42 117.679 1043.1 113.715C1044.93 109.75 1047.29 106.32 1050.19 103.423C1053.24 100.373 1056.82 98.0101 1060.94 96.3329C1065.06 94.5032 1069.56 93.5884 1074.43 93.5884H1082.21V113.715H1074.43C1070.47 113.715 1067.12 114.858 1064.37 117.145C1061.78 119.28 1060.48 122.1 1060.48 125.607C1060.48 129.114 1061.47 131.935 1063.46 134.069C1065.59 136.052 1067.8 137.576 1070.09 138.644L1076.95 142.074Z" fill="black"/>
</svg>
